<?xml version="1.0" encoding="UTF-8"?>
<!DOCTYPE svg PUBLIC "-//W3C//DTD SVG 1.1//EN" "http://www.w3.org/Graphics/SVG/1.1/DTD/svg11.dtd">
<svg version="1.1" xmlns="http://www.w3.org/2000/svg" xmlns:xlink="http://www.w3.org/1999/xlink" x="0" y="0" width="40" height="40" viewBox="0, 0, 597, 356">
  <g id="Layer_1">
    <path d="M77.174,307.767 C77.174,306.631 78.093,305.714 79.227,305.714 C80.362,305.714 81.281,306.631 81.281,307.767 C81.281,308.901 80.362,309.819 79.227,309.819 C78.093,309.819 77.174,308.901 77.174,307.767 M49.311,306.621 C49.311,307.753 48.393,308.675 47.258,308.675 C46.124,308.675 45.204,307.753 45.204,306.621 C45.204,305.487 46.124,304.568 47.258,304.568 C48.393,304.568 49.311,305.487 49.311,306.621 M85.388,278.607 C85.388,279.742 84.469,280.66 83.334,280.66 C82.201,280.66 81.281,279.742 81.281,278.607 C81.281,277.47 82.201,276.552 83.334,276.552 C84.469,276.552 85.388,277.47 85.388,278.607 M116.749,279.317 C116.749,280.451 115.831,281.371 114.695,281.371 C113.561,281.371 112.642,280.451 112.642,279.317 C112.642,278.18 113.561,277.263 114.695,277.263 C115.831,277.263 116.749,278.18 116.749,279.317 M122.556,296.125 C122.556,297.258 121.636,298.179 120.501,298.179 C119.367,298.179 118.448,297.258 118.448,296.125 C118.448,294.991 119.367,294.073 120.501,294.073 C121.636,294.073 122.556,294.991 122.556,296.125 M82.648,296.125 C82.648,297.258 81.728,298.179 80.594,298.179 C79.459,298.179 78.54,297.258 78.54,296.125 C78.54,294.991 79.459,294.073 80.594,294.073 C81.728,294.073 82.648,294.991 82.648,296.125 M67.464,296.125 C67.464,297.258 66.545,298.179 65.41,298.179 C64.275,298.179 63.357,297.258 63.357,296.125 C63.357,294.991 64.275,294.073 65.41,294.073 C66.545,294.073 67.464,294.991 67.464,296.125 M1.725,303.122 L2.942,303.122 L2.942,303.274 L1.725,303.274 z M499.346,304.389 L584.125,270.316 L524.089,319.601 L499.346,304.389 z M333.474,85.749 C331.649,85.141 361.022,2.864 361.022,2.864 L367.857,87.515 C367.857,87.515 335.3,86.358 333.474,85.749 M370.148,162.213 C370.148,162.213 346.013,156.128 308.897,156.534 C312.421,151.255 333.392,98.559 333.392,98.559 L370.148,98.559 L370.148,162.213 z M236.083,152.681 L171.586,131.993 L220.669,18.819 L236.083,152.681 z M121.693,266.665 C121.693,266.665 101.411,267.477 13.792,256.93 C34.886,232.186 48.689,138.607 48.689,138.607 L109.435,167.014 L121.693,266.665 z M44.621,121.04 C61.05,110.697 98.977,37.073 98.571,35.856 C98.571,35.856 109.118,156.737 109.118,158.359 C109.118,159.982 54.762,130.37 44.621,121.04 M485.899,318.994 C484.557,318.994 483.464,317.901 483.464,316.56 C483.464,315.218 484.557,314.126 485.899,314.126 C487.241,314.126 488.333,315.218 488.333,316.56 C488.333,317.901 487.241,318.994 485.899,318.994 M390.75,315.425 L378.541,160.561 L381.401,160.428 L383.053,152.188 L377.899,152.427 L368.048,27.486 L431.687,233.525 C410.154,202.629 387.793,170.528 387.793,170.528 C387.793,171.745 400.37,299.522 400.37,299.522 C400.37,299.522 429.367,296.245 450.194,293.441 L455.194,309.631 C431.841,311.388 405.326,313.959 390.75,315.425 M447.386,320.21 C446.043,320.21 444.953,319.118 444.953,317.777 C444.953,316.435 446.043,315.343 447.386,315.343 C448.728,315.343 449.821,316.435 449.821,317.777 C449.821,319.118 448.728,320.21 447.386,320.21 M428.13,320.819 C426.79,320.819 425.697,319.726 425.697,318.385 C425.697,317.043 426.79,315.952 428.13,315.952 C429.472,315.952 430.565,317.043 430.565,318.385 C430.565,319.726 429.472,320.819 428.13,320.819 M408.875,321.427 C407.533,321.427 406.441,320.334 406.441,318.994 C406.441,317.652 407.533,316.56 408.875,316.56 C410.216,316.56 411.309,317.652 411.309,318.994 C411.309,320.334 410.216,321.427 408.875,321.427 M371.163,328.728 C370.985,328.728 369.914,328.747 368.12,328.783 L368.12,320.819 L377.396,320.819 C375.41,324.327 372.626,328.728 371.163,328.728 M359.153,320.819 L366.903,320.819 L366.903,328.806 C364.921,328.844 362.314,328.893 359.153,328.952 L359.153,320.819 z M350.186,320.819 L357.936,320.819 L357.936,328.975 C355.603,329.018 353.011,329.066 350.186,329.115 L350.186,320.819 z M341.222,320.819 L348.969,320.819 L348.969,329.136 C346.535,329.178 343.948,329.221 341.222,329.267 L341.222,320.819 z M323.287,329.538 L323.287,320.819 L326.763,320.819 L329.516,329.447 C327.483,329.478 325.407,329.507 323.287,329.538 M314.32,320.819 L322.069,320.819 L322.069,329.552 C319.537,329.589 316.951,329.623 314.32,329.655 L314.32,320.819 z M305.352,320.819 L313.103,320.819 L313.103,329.671 C310.554,329.702 307.968,329.733 305.352,329.761 L305.352,320.819 z M296.387,320.819 L304.135,320.819 L304.135,329.776 C301.576,329.801 298.99,329.829 296.387,329.852 L296.387,320.819 z M287.419,329.93 L287.419,323.942 L288.936,329.916 C288.432,329.922 287.925,329.925 287.419,329.93 M251.552,321.536 L259.301,329.886 L259.301,330.042 C256.688,330.04 254.103,330.038 251.552,330.03 L251.552,321.536 z M242.584,320.819 L250.335,320.819 L250.335,330.026 C247.708,330.015 245.119,330.002 242.584,329.984 L242.584,320.819 z M233.618,320.819 L241.367,320.819 L241.367,329.974 C238.721,329.952 236.134,329.925 233.618,329.894 L233.618,320.819 z M224.65,320.819 L232.401,320.819 L232.401,329.878 C229.729,329.842 227.139,329.797 224.65,329.746 L224.65,320.819 z M215.684,320.819 L223.434,320.819 L223.434,329.721 C220.721,329.662 218.125,329.594 215.684,329.517 L215.684,320.819 z M206.718,320.819 L214.467,320.819 L214.467,329.476 C211.667,329.38 209.074,329.271 206.718,329.146 L206.718,320.819 z M197.75,320.819 L205.501,320.819 L205.501,329.082 C202.443,328.907 199.837,328.705 197.75,328.473 L197.75,320.819 z M182.662,320.819 L196.534,320.819 L196.534,328.328 C194.702,328.086 193.39,327.817 192.681,327.511 C187.526,325.3 184.472,322.846 182.662,320.819 M57.284,329.265 C55.941,329.265 54.85,328.173 54.85,326.831 C54.85,325.488 55.941,324.398 57.284,324.398 C58.625,324.398 59.717,325.488 59.717,326.831 C59.717,328.173 58.625,329.265 57.284,329.265 M77.247,329.698 C75.905,329.698 74.813,328.608 74.813,327.264 C74.813,325.923 75.905,324.829 77.247,324.829 C78.589,324.829 79.681,325.923 79.681,327.264 C79.681,328.608 78.589,329.698 77.247,329.698 M97.209,330.134 C95.867,330.134 94.775,329.04 94.775,327.701 C94.775,326.358 95.867,325.266 97.209,325.266 C98.551,325.266 99.643,326.358 99.643,327.701 C99.643,329.04 98.551,330.134 97.209,330.134 M117.173,330.567 C115.831,330.567 114.739,329.477 114.739,328.134 C114.739,326.793 115.831,325.701 117.173,325.701 C118.515,325.701 119.607,326.793 119.607,328.134 C119.607,329.477 118.515,330.567 117.173,330.567 M137.136,331.003 C135.794,331.003 134.703,329.911 134.703,328.57 C134.703,327.227 135.794,326.137 137.136,326.137 C138.479,326.137 139.57,327.227 139.57,328.57 C139.57,329.911 138.479,331.003 137.136,331.003 M157.101,331.437 C155.758,331.437 154.667,330.345 154.667,329.002 C154.667,327.663 155.758,326.569 157.101,326.569 C158.442,326.569 159.534,327.663 159.534,329.002 C159.534,330.345 158.442,331.437 157.101,331.437 M139.476,315.973 L122.063,182.01 L149.188,211.237 L161.517,255.268 C157.402,277.984 153.739,294.654 153.739,294.654 L172.545,294.654 L178.674,316.54 C174.146,316.483 159.101,316.283 139.476,315.973 M131.93,315.853 L131.93,288.976 L122.909,288.976 L122.909,274.581 L131.706,275.073 L137.016,315.935 C135.346,315.908 133.655,315.881 131.93,315.853 M6.136,312.613 L5.862,306.21 L14.517,306.319 L14.644,313.058 C11.373,312.912 8.515,312.763 6.136,312.613 M25.15,306.454 L25.15,313.469 C21.806,313.351 18.691,313.232 15.863,313.112 L15.735,306.333 L25.15,306.454 z M27.584,303.274 L129.496,303.274 L129.496,314.618 L102.82,314.618 L102.82,306.621 L96.746,306.621 L96.746,314.618 L66.87,314.618 C52.447,314.288 38.833,313.931 27.584,313.553 L27.584,303.274 z M34.886,296.082 L39.753,296.157 L39.753,300.841 L34.886,300.841 L34.886,296.082 z M40.97,296.174 L49.086,296.294 L49.181,300.841 L40.97,300.841 L40.97,296.174 z M54.357,296.374 L54.357,300.841 L50.398,300.841 L50.304,296.313 L54.357,296.374 z M56.79,291.41 L129.496,291.41 L129.496,300.841 L56.79,300.841 z M77.174,274.677 L120.476,274.677 L120.476,288.976 L77.174,288.976 z M117.008,143.117 L105.657,55.777 L148.47,208.672 L121.794,179.93 L118.06,151.206 L121.013,150.884 L122.151,142.559 L117.008,143.117 z M165.924,229.271 C164.654,237.36 163.318,245.217 162.01,252.522 L150.997,213.186 L165.924,229.271 z M177.063,331.873 C175.72,331.873 174.628,330.78 174.628,329.439 C174.628,328.096 175.72,327.005 177.063,327.005 C178.406,327.005 179.497,328.096 179.497,329.439 C179.497,330.78 178.406,331.873 177.063,331.873 M248.627,318.385 L180.886,318.385 C180.257,317.27 180.105,316.559 180.105,316.559 C180.105,316.559 180.042,316.559 179.942,316.557 L173.809,294.654 L226.604,294.654 L248.627,318.385 z M259.301,320.819 L259.301,328.098 L252.546,320.819 L259.301,320.819 z M265.604,320.819 L266.664,330.035 C264.803,330.038 262.948,330.04 261.106,330.042 L260.518,329.408 L260.518,320.819 L265.604,320.819 z M252.595,186.618 L286.01,318.385 L267.774,318.385 L252.595,186.618 z M278.451,320.819 L286.202,320.819 L286.202,329.939 C283.621,329.955 281.035,329.973 278.451,329.988 L278.451,320.819 z M268.269,322.681 L268.053,320.819 L268.269,320.819 L268.269,322.681 z M277.234,329.996 C274.645,330.006 272.059,330.018 269.486,330.027 L269.486,320.819 L277.234,320.819 L277.234,329.996 z M295.169,329.864 C293.513,329.88 291.853,329.894 290.187,329.907 L287.882,320.819 L295.169,320.819 L295.169,329.864 z M247.709,144.197 L234.866,32.722 L300.202,237.549 C298.098,259.55 294.92,282.471 290.135,299.522 C298.606,298.969 308.959,298.52 319.537,298.161 L325.987,318.385 L287.265,318.385 L253.422,184.927 L252.429,185.178 L248.641,152.298 L251.672,151.977 L252.832,143.654 L247.709,144.197 z M331.036,320.819 L331.036,329.426 L330.789,329.429 L328.042,320.819 L331.036,320.819 z M340.004,329.286 C337.521,329.326 334.931,329.366 332.252,329.407 L332.252,320.819 L340.004,320.819 L340.004,329.286 z M389.62,322.036 C388.278,322.036 387.185,320.943 387.185,319.602 C387.185,318.26 388.278,317.169 389.62,317.169 C390.961,317.169 392.053,318.26 392.053,319.602 C392.053,320.943 390.961,322.036 389.62,322.036 M466.643,319.602 C465.3,319.602 464.209,318.509 464.209,317.169 C464.209,315.827 465.3,314.735 466.643,314.735 C467.985,314.735 469.077,315.827 469.077,317.169 C469.077,318.509 467.985,319.602 466.643,319.602 M37.32,328.83 C35.977,328.83 34.886,327.737 34.886,326.397 C34.886,325.055 35.977,323.962 37.32,323.962 C38.662,323.962 39.753,325.055 39.753,326.397 C39.753,327.737 38.662,328.83 37.32,328.83 M486.111,307.848 L596.954,262.925 L596.039,260.671 L478.959,308.121 C476.983,308.212 474.916,308.324 472.766,308.447 L481.499,270.76 C504.662,277.806 533.09,286.289 532.607,285.326 C532.326,284.759 521.48,274.667 507.48,261.766 L554.107,270.316 L527.957,243.029 L581.3,258.146 L470.965,153.491 L492.939,206.485 L454.724,166.607 C454.465,167.038 465.299,203.788 473.159,230.272 C457.153,215.622 444.178,203.791 444.178,203.791 L452.292,261.797 C452.292,261.797 465.014,265.742 480.331,270.405 L471.498,308.52 C466.77,308.803 461.695,309.15 456.438,309.54 L451.415,293.276 C462.761,291.732 471.379,290.357 470.951,289.787 C470.391,289.041 452.821,263.844 433.973,236.805 L368.092,23.506 L367.743,23.615 L366.694,10.298 C367.534,9.809 368.105,8.909 368.105,7.867 C368.105,6.306 366.841,5.042 365.28,5.042 C363.721,5.042 362.458,6.306 362.458,7.867 C362.458,9.066 363.21,10.086 364.267,10.495 L370.777,93.065 L319.977,91.901 L319.924,94.334 L370.97,95.503 L375.466,152.541 L370.36,152.778 L372.635,160.835 L376.108,160.673 L376.503,165.68 L293.855,160.998 L293.717,163.429 L376.695,168.128 L388.329,315.668 C382.92,316.216 379.682,316.559 379.682,316.559 C379.682,316.559 379.317,317.288 378.732,318.385 L327.265,318.385 L320.801,298.119 C348.584,297.197 377.45,296.886 377.45,296.886 L373.191,170.528 L304.233,166.607 C304.233,166.607 303.745,198.9 300.491,234.451 L234.145,26.452 L233.324,19.331 C234.032,18.818 234.497,17.99 234.497,17.049 C234.497,15.875 233.78,14.87 232.761,14.444 L231.412,2.725 L228.992,3.004 L230.328,14.581 C229.45,15.061 228.849,15.98 228.849,17.049 C228.849,18.349 229.729,19.43 230.924,19.761 L245.287,144.454 L240.198,144.994 L242.946,152.902 L246.22,152.555 L246.989,159.226 L158.526,134.674 L157.875,137.017 L247.29,161.836 L265.324,318.385 L250.287,318.385 L228.265,294.654 L254.744,294.654 L239.329,162.72 L171.586,143.249 C174.835,161.545 171.063,196.197 166.163,227.738 L150.279,210.623 L104.562,47.356 L102.929,34.789 C103.704,34.285 104.219,33.416 104.219,32.423 C104.219,31.172 103.401,30.124 102.274,29.751 L99.778,10.549 L97.365,10.863 L99.86,30.056 C99.084,30.561 98.571,31.431 98.571,32.423 C98.571,33.673 99.388,34.722 100.514,35.093 L114.589,143.381 L109.521,143.931 L112.289,151.832 L115.639,151.468 L117.459,165.465 C94.738,154.244 31.295,122.921 30.402,122.623 L29.573,124.911 C31.115,125.56 87.635,153.448 117.836,168.367 L131.386,272.618 L3.314,265.464 L3.177,267.894 L81.032,272.244 L74.74,272.244 L74.74,288.976 L54.357,288.976 L54.357,295.156 L33.669,294.847 L33.669,300.841 L25.15,300.841 L25.15,305.237 L2.34,304.948 L2.326,306.164 L4.644,306.195 L4.915,312.537 C2.801,312.391 1.133,312.246 0,312.098 L4.028,318.492 L178.798,321.68 L178.776,322.898 L4.804,319.724 L13.792,334.001 L44.621,354.69 L470.965,354.69 C470.965,354.69 476.452,338.32 485.519,324.116 L377.477,329.048 L377.423,327.833 L486.33,322.861 C490.122,317.114 494.502,311.818 499.346,308.244 C497.139,307.769 492.429,307.677 486.111,307.848" fill="rgb(228, 7, 37)"/>
  </g>
</svg>
